<svg xmlns="http://www.w3.org/2000/svg" width="527" height="627" viewBox="0 0 527 627" version="1.1">
    <path d="M 238 67.688 C 198.474 74.252, 148.510 110.864, 127.288 148.813 C 111.402 177.220, 111.714 174.313, 111.263 297.739 L 110.883 401.977 120.649 414.239 C 143.360 442.754, 174.321 470.939, 205.462 491.447 C 215.912 498.328, 214.999 499.130, 213.940 484 C 213.459 477.125, 212.364 451.700, 211.508 427.500 C 210.651 403.300, 209.514 371.800, 208.982 357.500 C 208.449 343.200, 208.010 323.576, 208.006 313.891 L 208 296.281 191.750 287.994 C 164.888 274.296, 159.611 269.886, 155.905 258.042 C 153.174 249.312, 152.018 232.409, 154.211 233.251 C 155.945 233.916, 222.730 254.424, 230.750 256.754 C 235.836 258.231, 236 258.392, 235.991 261.889 C 235.979 266.131, 233.737 301.581, 231.346 335.300 L 229.659 359.100 246.473 375.300 C 255.721 384.210, 263.564 391.614, 263.902 391.753 C 264.240 391.892, 271.845 384.668, 280.801 375.700 L 297.084 359.394 295.042 331.447 C 292.741 299.947, 290.071 258.563, 290.329 258.402 C 290.655 258.198, 318.519 249.728, 323 248.470 C 325.475 247.775, 338.051 244.024, 350.947 240.134 C 378.286 231.887, 375.657 231.348, 374.315 244.924 C 372.093 267.417, 368.218 271.367, 328 292.142 L 321.500 295.500 321.266 305.500 C 321.032 315.469, 317.885 406.234, 315.996 457.500 C 315.448 472.350, 314.746 487.561, 314.435 491.302 L 313.869 498.103 321.184 493.328 C 353.134 472.471, 386.069 442.945, 408.362 415.172 L 418.086 403.058 417.733 298.279 C 417.345 183.451, 417.666 189.805, 411.314 171 C 397.507 130.117, 354.724 89.704, 307.162 72.616 C 293.578 67.735, 254.485 64.950, 238 67.688"
          stroke="none" fill="#2b3942" fill-rule="evenodd"/>
    <path d="M 216 2.698 C 152.374 5.763, 58.940 26.099, 5.709 48.468 L 1.919 50.061 2.297 196.280 C 2.633 326.307, 2.857 343.552, 4.319 352 C 21.816 453.104, 90.317 529.787, 235 610.231 C 266.096 627.521, 263.513 627.014, 278.906 618.854 C 410.717 548.983, 489.316 472.367, 514.607 389.101 C 524.389 356.897, 524 364.893, 524 195.823 L 524 50.070 521.861 48.926 C 513.939 44.686, 463.647 28.899, 436.500 22.130 C 371.073 5.818, 293.381 -1.029, 216 2.698 M 238 67.688 C 198.474 74.252, 148.510 110.864, 127.288 148.813 C 111.402 177.220, 111.714 174.313, 111.263 297.739 L 110.883 401.977 120.649 414.239 C 143.360 442.754, 174.321 470.939, 205.462 491.447 C 215.912 498.328, 214.999 499.130, 213.940 484 C 213.459 477.125, 212.364 451.700, 211.508 427.500 C 210.651 403.300, 209.514 371.800, 208.982 357.500 C 208.449 343.200, 208.010 323.576, 208.006 313.891 L 208 296.281 191.750 287.994 C 164.888 274.296, 159.611 269.886, 155.905 258.042 C 153.174 249.312, 152.018 232.409, 154.211 233.251 C 155.945 233.916, 222.730 254.424, 230.750 256.754 C 235.836 258.231, 236 258.392, 235.991 261.889 C 235.979 266.131, 233.737 301.581, 231.346 335.300 L 229.659 359.100 246.473 375.300 C 255.721 384.210, 263.564 391.614, 263.902 391.753 C 264.240 391.892, 271.845 384.668, 280.801 375.700 L 297.084 359.394 295.042 331.447 C 292.741 299.947, 290.071 258.563, 290.329 258.402 C 290.655 258.198, 318.519 249.728, 323 248.470 C 325.475 247.775, 338.051 244.024, 350.947 240.134 C 378.286 231.887, 375.657 231.348, 374.315 244.924 C 372.093 267.417, 368.218 271.367, 328 292.142 L 321.500 295.500 321.266 305.500 C 321.032 315.469, 317.885 406.234, 315.996 457.500 C 315.448 472.350, 314.746 487.561, 314.435 491.302 L 313.869 498.103 321.184 493.328 C 353.134 472.471, 386.069 442.945, 408.362 415.172 L 418.086 403.058 417.733 298.279 C 417.345 183.451, 417.666 189.805, 411.314 171 C 397.507 130.117, 354.724 89.704, 307.162 72.616 C 293.578 67.735, 254.485 64.950, 238 67.688"
          stroke="none" fill="#d7753b" fill-rule="evenodd"/>
</svg>